<svg xmlns="http://www.w3.org/2000/svg" viewBox="0 0 500 500" fill="none">
  <g stroke="#B5E853" stroke-width="0.8" opacity="0.4">
    <line x1="50" y1="250" x2="150" y2="100" />
    <line x1="50" y1="250" x2="200" y2="350" />
    <line x1="50" y1="250" x2="170" y2="420" />
    <line x1="150" y1="100" x2="300" y2="80" />
    <line x1="150" y1="100" x2="250" y2="250" />
    <line x1="150" y1="100" x2="200" y2="350" />
    <line x1="300" y1="80" x2="420" y2="150" />
    <line x1="300" y1="80" x2="250" y2="250" />
    <line x1="300" y1="80" x2="380" y2="320" />
    <line x1="420" y1="150" x2="460" y2="300" />
    <line x1="420" y1="150" x2="250" y2="250" />
    <line x1="460" y1="300" x2="380" y2="420" />
    <line x1="460" y1="300" x2="250" y2="250" />
    <line x1="380" y1="420" x2="200" y2="450" />
    <line x1="380" y1="420" x2="250" y2="250" />
    <line x1="200" y1="450" x2="80" y2="380" />
    <line x1="200" y1="450" x2="250" y2="250" />
    <line x1="80" y1="380" x2="50" y2="250" />
    <line x1="80" y1="380" x2="250" y2="250" />
    <line x1="200" y1="350" x2="250" y2="250" />
    <line x1="380" y1="320" x2="250" y2="250" />
    <line x1="380" y1="320" x2="460" y2="300" />
    <line x1="170" y1="420" x2="200" y2="450" />
    <line x1="170" y1="420" x2="250" y2="250" />
  </g>
  <g fill="#B5E853">
    <circle cx="50" cy="250" r="4" opacity="0.6" />
    <circle cx="150" cy="100" r="4" opacity="0.6" />
    <circle cx="300" cy="80" r="4" opacity="0.6" />
    <circle cx="420" cy="150" r="4" opacity="0.6" />
    <circle cx="460" cy="300" r="4" opacity="0.6" />
    <circle cx="380" cy="420" r="4" opacity="0.6" />
    <circle cx="200" cy="450" r="4" opacity="0.6" />
    <circle cx="80" cy="380" r="4" opacity="0.6" />
    <circle cx="200" cy="350" r="3" opacity="0.5" />
    <circle cx="380" cy="320" r="3" opacity="0.5" />
    <circle cx="170" cy="420" r="3" opacity="0.5" />
    <circle cx="250" cy="250" r="8" opacity="0.9" />
    <circle cx="250" cy="250" r="16" opacity="0.15" />
  </g>
</svg>
