<svg xmlns="http://www.w3.org/2000/svg" viewBox="0 0 420 420" fill="none">
  <g stroke="#F5F5EE" stroke-width="1" fill="none" opacity="0.5">
    <path d="M80 210 C 80 130, 130 70, 210 70 C 290 70, 340 130, 340 210 C 340 290, 290 350, 210 350 C 130 350, 80 290, 80 210Z" />
    <path d="M50 210 C 50 110, 115 45, 210 45 C 305 45, 370 110, 370 210 C 370 310, 305 375, 210 375 C 115 375, 50 310, 50 210Z" />
    <path d="M110 200 C 105 160, 130 120, 170 105 C 210 90, 255 100, 280 130 C 305 160, 305 200, 290 230 C 275 260, 245 275, 210 275 C 175 275, 150 260, 130 240 C 118 228, 112 214, 110 200Z" />
    <path d="M140 205 C 138 178, 158 155, 188 147 C 218 139, 250 150, 265 172 C 280 194, 278 224, 262 244 C 246 264, 222 272, 198 268 C 174 264, 152 252, 144 235 C 141 224, 140 215, 140 205Z" />
    <path d="M170 210 C 170 192, 182 178, 198 174 C 214 170, 232 178, 240 193 C 248 208, 246 226, 236 238 C 226 250, 210 254, 196 250 C 182 246, 171 236, 170 222 C 170 218, 170 214, 170 210Z" />
    <path d="M30 210 C 30 95, 108 18, 210 18 C 312 18, 390 95, 390 210 C 390 325, 312 402, 210 402 C 108 402, 30 325, 30 210Z" />
    <path d="M15 180 C 20 80, 100 10, 200 8 C 300 6, 398 80, 405 180 C 412 280, 340 380, 235 390 C 130 400, 25 340, 15 240 C 12 220, 13 200, 15 180Z" />
  </g>
  <g stroke="#F5F5EE" stroke-width="0.5" opacity="0.25">
    <line x1="210" y1="50" x2="210" y2="370" stroke-dasharray="4 6" />
    <line x1="50" y1="210" x2="370" y2="210" stroke-dasharray="4 6" />
  </g>
  <circle cx="210" cy="210" r="8" stroke="#F5F5EE" stroke-width="1.5" opacity="0.7" fill="none" />
  <circle cx="210" cy="210" r="3" fill="#F5F5EE" opacity="0.6" />
</svg>
