<svg xmlns="http://www.w3.org/2000/svg" viewBox="0 0 520 520" fill="none">
  <g stroke="#B5E853" stroke-width="1" fill="none" opacity="0.6">
    <path d="M260 260 C 200 240, 140 200, 120 150 C 100 100, 130 60, 180 50 C 230 40, 290 70, 320 110 C 350 150, 340 200, 300 230 C 280 245, 270 255, 260 260Z" />
    <path d="M260 260 C 180 225, 110 175, 90 115 C 70 55, 110 20, 170 15 C 230 10, 300 45, 340 90 C 380 135, 370 195, 330 235 C 300 265, 280 262, 260 260Z" />
    <path d="M260 260 C 160 210, 80 150, 60 80 C 40 10, 90 -20, 160 -20 C 230 -20, 310 20, 360 70 C 410 120, 400 190, 360 240 C 320 285, 290 268, 260 260Z" />
    <path d="M260 260 C 300 280, 360 300, 400 350 C 440 400, 420 450, 370 460 C 320 470, 260 450, 230 410 C 200 370, 215 320, 240 290 C 248 278, 254 270, 260 260Z" />
    <path d="M260 260 C 320 295, 390 330, 430 390 C 470 450, 440 500, 380 505 C 320 510, 250 480, 215 435 C 180 390, 195 340, 225 305 C 240 288, 250 275, 260 260Z" />
    <path d="M260 260 C 340 305, 420 355, 460 425 C 500 495, 460 540, 390 540 C 320 540, 240 505, 200 455 C 160 405, 178 355, 212 318 C 232 298, 246 280, 260 260Z" />
    <path d="M260 260 C 130 305, 60 360, 50 430 C 40 500, 90 530, 160 525 C 230 520, 290 490, 310 450 C 330 410, 305 370, 280 335 C 268 316, 264 288, 260 260Z" />
    <path d="M260 260 C 110 315, 30 380, 25 460 C 20 540, 80 570, 160 560 C 240 550, 305 515, 322 468 C 340 421, 312 378, 285 340 C 272 321, 266 291, 260 260Z" />
  </g>
  <g stroke="#B5E853" stroke-width="0.5" opacity="0.3">
    <path d="M260 260 C 220 235, 170 215, 150 185 C 130 155, 145 125, 175 115 C 205 105, 245 120, 265 145 C 285 170, 278 210, 260 260Z" />
    <path d="M260 260 C 290 240, 330 225, 355 200 C 380 175, 375 145, 350 132 C 325 119, 292 128, 275 152 C 258 176, 258 218, 260 260Z" />
    <circle cx="260" cy="260" r="12" stroke="#B5E853" stroke-width="1.5" opacity="0.8" />
    <circle cx="260" cy="260" r="4" fill="#B5E853" opacity="0.9" />
  </g>
</svg>
