<svg xmlns="http://www.w3.org/2000/svg" viewBox="0 0 400 400" fill="none">
  <g stroke="#0F1F12" stroke-width="1.2" fill="none" opacity="0.7">
    <path d="M200 200 C 160 185, 115 165, 95 135 C 75 105, 90 70, 125 58 C 160 46, 205 62, 228 92 C 251 122, 242 165, 220 190 C 212 197, 206 199, 200 200Z" />
    <path d="M200 200 C 150 180, 95 152, 75 112 C 55 72, 78 40, 118 32 C 158 24, 212 45, 240 80 C 268 115, 258 165, 232 196 C 218 212, 208 205, 200 200Z" />
    <path d="M200 200 C 240 215, 290 235, 308 270 C 326 305, 308 340, 274 347 C 240 354, 200 335, 180 305 C 160 275, 170 240, 188 218 C 194 210, 197 206, 200 200Z" />
    <path d="M200 200 C 250 220, 308 248, 328 292 C 348 336, 325 370, 284 374 C 243 378, 196 352, 172 316 C 148 280, 160 242, 182 216 C 190 207, 195 204, 200 200Z" />
    <path d="M200 200 C 145 218, 85 242, 65 285 C 45 328, 72 360, 112 360 C 152 360, 192 336, 208 302 C 224 268, 212 232, 203 212 C 201 207, 200 204, 200 200Z" />
    <path d="M200 200 C 135 222, 65 250, 42 300 C 19 350, 50 382, 98 380 C 146 378, 190 348, 206 306 C 222 264, 210 228, 202 212 C 201 208, 200 204, 200 200Z" />
    <path d="M200 200 C 200 150, 200 95, 230 65 C 260 35, 295 40, 315 65 C 335 90, 330 130, 312 158 C 294 186, 248 196, 200 200Z" />
    <path d="M200 200 C 200 140, 200 75, 236 42 C 272 9, 312 18, 336 48 C 360 78, 354 125, 332 158 C 310 191, 258 198, 200 200Z" />
  </g>
  <g stroke="#B5E853" stroke-width="1" opacity="0.5">
    <path d="M200 200 C 188 190, 176 178, 174 163 C 172 148, 182 137, 196 136 C 210 135, 224 146, 225 161 C 226 176, 214 190, 200 200Z" />
  </g>
  <circle cx="200" cy="200" r="14" stroke="#B5E853" stroke-width="1.5" opacity="0.6" fill="none" />
  <circle cx="200" cy="200" r="5" fill="#B5E853" opacity="0.8" />
  <circle cx="200" cy="200" r="2" fill="#0F1F12" opacity="1" />
</svg>
