<svg xmlns="http://www.w3.org/2000/svg" viewBox="0 0 1200 120" fill="none" preserveAspectRatio="none">
  <path d="M0 60 C 100 20, 200 100, 300 60 C 400 20, 500 100, 600 60 C 700 20, 800 100, 900 60 C 1000 20, 1100 100, 1200 60 L 1200 120 L 0 120 Z" fill="#0F1F12" opacity="0.8" />
  <path d="M0 70 C 150 30, 250 110, 400 70 C 550 30, 650 110, 800 70 C 950 30, 1050 110, 1200 70 L 1200 120 L 0 120 Z" fill="#0F1F12" opacity="0.5" />
  <path d="M0 60 C 100 20, 200 100, 300 60 C 400 20, 500 100, 600 60 C 700 20, 800 100, 900 60 C 1000 20, 1100 100, 1200 60" stroke="#B5E853" stroke-width="0.8" opacity="0.3" />
</svg>
